<?xml version="1.0" encoding="UTF-8" standalone="no"?>
<!-- Created with Inkscape (http://www.inkscape.org/) -->

<svg
   xmlns:dc="http://purl.org/dc/elements/1.1/"
   xmlns:cc="http://creativecommons.org/ns#"
   xmlns:rdf="http://www.w3.org/1999/02/22-rdf-syntax-ns#"
   xmlns:svg="http://www.w3.org/2000/svg"
   xmlns="http://www.w3.org/2000/svg"
   xmlns:sodipodi="http://sodipodi.sourceforge.net/DTD/sodipodi-0.dtd"
   xmlns:inkscape="http://www.inkscape.org/namespaces/inkscape"
   sodipodi:docname="audio_img_default.svg"
   viewBox="0 0 2533.3333 1689.3333"
   height="1689.3333"
   width="2533.3333"
   xml:space="preserve"
   id="svg2"
   version="1.1"
   inkscape:export-filename="C:\Users\jlarroyor\Desktop\audio_img_default.png"
   inkscape:export-xdpi="71"
   inkscape:export-ydpi="71"
   inkscape:version="0.92.1 r15371"><metadata
     id="metadata8"><rdf:RDF><cc:Work
         rdf:about=""><dc:format>image/svg+xml</dc:format><dc:type
           rdf:resource="http://purl.org/dc/dcmitype/StillImage" /><dc:title /></cc:Work></rdf:RDF></metadata><defs
     id="defs6"><clipPath
       clipPathUnits="userSpaceOnUse"
       id="clipPath20"><path
         d="M 0,1267 H 1900 V 0 H 0 Z"
         id="path18"
         inkscape:connector-curvature="0" /></clipPath></defs><sodipodi:namedview
     inkscape:current-layer="g10"
     inkscape:window-maximized="1"
     inkscape:window-y="-8"
     inkscape:window-x="-8"
     inkscape:cy="893.48826"
     inkscape:cx="1930.1453"
     inkscape:zoom="0.22627417"
     showgrid="false"
     id="namedview4"
     inkscape:window-height="1017"
     inkscape:window-width="1920"
     inkscape:pageshadow="2"
     inkscape:pageopacity="0"
     guidetolerance="10"
     gridtolerance="10"
     objecttolerance="10"
     borderopacity="1"
     bordercolor="#666666"
     pagecolor="#ffffff" /><g
     id="g10"
     inkscape:groupmode="layer"
     inkscape:label="video_img_default"
     transform="matrix(1.3333333,0,0,-1.3333333,0,1689.3333)"><path
       d="M 0,0 H 1900 V 1267 H 0 Z"
       style="fill:#e7e7e7;fill-opacity:1;fill-rule:nonzero;stroke:none"
       id="path12"
       inkscape:connector-curvature="0" /><g
       id="g4161"
       transform="matrix(40.96,0,0,40.96,-88926.103,4706.4338)"
       style="fill:#9a9a9a;fill-opacity:1"><path
         style="fill:#9a9a9a;fill-opacity:1;stroke-width:0.75"
         id="path4"
         d="m 2188.9908,-100.93686 h -1.5 v -10.5 h 1.5 c 0.4125,0 0.75,0.3375 0.75,0.75 v 9 c 0,0.4125 -0.3375,0.75 -0.75,0.75 z"
         inkscape:connector-curvature="0" /><path
         style="fill:#9a9a9a;fill-opacity:1;stroke-width:0.75"
         id="path6"
         d="m 2199.4908,-100.93686 c -0.4125,0 -0.75,-0.3375 -0.75,-0.75 v -9 c 0,-0.4125 0.3375,-0.75 0.75,-0.75 h 1.5 v 10.5 z"
         inkscape:connector-curvature="0" /><path
         style="fill:#9a9a9a;fill-opacity:1;stroke-width:0.75"
         id="path8"
         d="m 2206.2408,-99.436858 c 0,6.6278 -5.3723,12 -12,12 -6.6278,0 -12,-5.3722 -12,-12 0,-1.439202 0.2535,-2.819202 0.7185,-4.098002 -0.4568,-0.7785 -0.7185,-1.6845 -0.7185,-2.652 0,-2.6445 1.956,-4.8322 4.5,-5.1967 v 10.3927 c -0.7478,-0.1072 -1.4453,-0.3712 -2.0565,-0.759 -0.126,0.6263 -0.1935,1.2743 -0.1935,1.938002 0,5.385 4.365,9.75 9.75,9.75 5.385,0 9.75,-4.365 9.75,-9.75 0,-0.663702 -0.066,-1.311702 -0.1928,-1.938002 -0.612,0.3878 -1.3087,0.6525 -2.0572,0.7598 v -10.3935 c 2.544,0.3637 4.5,2.5515 4.5,5.1967 0,0.9675 -0.2618,1.8735 -0.7185,2.652 0.465,1.2788 0.7185,2.6588 0.7185,4.098802 z"
         inkscape:connector-curvature="0" /></g></g></svg>