<?xml version="1.0" encoding="UTF-8" standalone="no"?>
<!-- Created with Inkscape (http://www.inkscape.org/) -->

<svg
   xmlns:dc="http://purl.org/dc/elements/1.1/"
   xmlns:cc="http://creativecommons.org/ns#"
   xmlns:rdf="http://www.w3.org/1999/02/22-rdf-syntax-ns#"
   xmlns:svg="http://www.w3.org/2000/svg"
   xmlns="http://www.w3.org/2000/svg"
   xmlns:sodipodi="http://sodipodi.sourceforge.net/DTD/sodipodi-0.dtd"
   xmlns:inkscape="http://www.inkscape.org/namespaces/inkscape"
   sodipodi:docname="fichero_img_default.svg"
   viewBox="0 0 2533.3333 1689.3333"
   height="1689.3333"
   width="2533.3333"
   xml:space="preserve"
   id="svg2"
   version="1.1"
   inkscape:export-filename="C:\Users\jlarroyor\Desktop\fichero_img_default.png"
   inkscape:export-xdpi="71"
   inkscape:export-ydpi="71"
   inkscape:version="0.92.1 r15371"><metadata
     id="metadata8"><rdf:RDF><cc:Work
         rdf:about=""><dc:format>image/svg+xml</dc:format><dc:type
           rdf:resource="http://purl.org/dc/dcmitype/StillImage" /><dc:title /></cc:Work></rdf:RDF></metadata><defs
     id="defs6"><clipPath
       clipPathUnits="userSpaceOnUse"
       id="clipPath20"><path
         d="M 0,1267 H 1900 V 0 H 0 Z"
         id="path18"
         inkscape:connector-curvature="0" /></clipPath></defs><sodipodi:namedview
     inkscape:current-layer="g10"
     inkscape:window-maximized="1"
     inkscape:window-y="-8"
     inkscape:window-x="-8"
     inkscape:cy="352.3113"
     inkscape:cx="145.9632"
     inkscape:zoom="0.16"
     showgrid="false"
     id="namedview4"
     inkscape:window-height="1017"
     inkscape:window-width="1920"
     inkscape:pageshadow="2"
     inkscape:pageopacity="0"
     guidetolerance="10"
     gridtolerance="10"
     objecttolerance="10"
     borderopacity="1"
     bordercolor="#666666"
     pagecolor="#ffffff" /><g
     id="g10"
     inkscape:groupmode="layer"
     inkscape:label="video_img_default"
     transform="matrix(1.3333333,0,0,-1.3333333,0,1689.3333)"><path
       d="M 0,0 H 1900 V 1267 H 0 Z"
       style="fill:#e7e7e7;fill-opacity:1;fill-rule:nonzero;stroke:none"
       id="path12"
       inkscape:connector-curvature="0" /><g
       id="g4155"
       transform="translate(1592.1875,-247.75006)"
       style="fill:#9a9a9a;fill-opacity:1"><path
         style="fill:#9a9a9a;fill-opacity:1;stroke-width:29.39999962"
         id="path4"
         d="m -269.36612,1141.1775 c -20.4036,27.8398 -48.8628,60.3562 -80.0856,91.6104 -31.2228,31.2502 -63.7686,59.682 -91.6104,80.0856 -47.3928,34.7508 -70.3542,38.7766 -83.5254,38.7766 H -980.2875 c -40.5132,0 -73.5,-32.9554 -73.5,-73.5 V 484.35006 c 0,-40.5132 32.9868,-73.5 73.5,-73.5 h 676.19998 c 40.5132,0 73.5,32.9868 73.5,73.5 v 573.30004 c 0,13.1712 -4.0278,36.162 -38.7786,83.5274 z m -121.6572,50.0388 c 28.1946,-28.1966 50.3328,-53.657 66.6792,-74.7662 h -141.4434 v 141.4454 c 21.1092,-16.3464 46.5696,-38.4866 74.7642,-66.6792 z m 101.6358,-706.86624 c 0,-7.96544 -6.7326,-14.7 -14.7,-14.7 H -980.2875 c -7.96744,0 -14.7,6.73456 -14.7,14.7 v 793.80004 c 0,7.9694 6.73256,14.7 14.7,14.7 0,0 455.67058,0 455.69998,0 v -205.8 c 0,-16.2288 13.1712,-29.4 29.4,-29.4 h 205.8 z"
         inkscape:connector-curvature="0" /><g
         style="fill:#9a9a9a;fill-opacity:1"
         transform="matrix(28.223999,0,0,28.223999,-642.18203,537.85806)"
         id="g24"><path
           inkscape:connector-curvature="0"
           id="path26"
           style="fill:#9a9a9a;fill-opacity:1;fill-rule:nonzero;stroke:none"
           d="m 0,0 c -0.866,0 -1.571,0.705 -1.571,1.571 v 9.064 L -4.246,7.961 C -4.542,7.664 -4.937,7.5 -5.357,7.5 c -0.42,0 -0.815,0.164 -1.112,0.461 -0.612,0.611 -0.612,1.608 0,2.222 l 5.358,5.357 C -0.814,15.837 -0.419,16 0,16 0.419,16 0.814,15.837 1.111,15.54 L 6.469,10.183 C 7.081,9.569 7.08,8.572 6.469,7.961 6.173,7.664 5.777,7.5 5.357,7.5 4.937,7.5 4.543,7.664 4.246,7.961 L 1.571,10.635 V 1.571 C 1.571,0.705 0.866,0 0,0" /></g></g></g></svg>