<?xml version="1.0" encoding="UTF-8" standalone="no"?>
<!-- Created with Inkscape (http://www.inkscape.org/) -->

<svg
   xmlns:dc="http://purl.org/dc/elements/1.1/"
   xmlns:cc="http://creativecommons.org/ns#"
   xmlns:rdf="http://www.w3.org/1999/02/22-rdf-syntax-ns#"
   xmlns:svg="http://www.w3.org/2000/svg"
   xmlns="http://www.w3.org/2000/svg"
   xmlns:sodipodi="http://sodipodi.sourceforge.net/DTD/sodipodi-0.dtd"
   xmlns:inkscape="http://www.inkscape.org/namespaces/inkscape"
   sodipodi:docname="video_img_default.svg"
   viewBox="0 0 2533.3333 1689.3333"
   height="1689.3333"
   width="2533.3333"
   xml:space="preserve"
   id="svg2"
   version="1.1"
   inkscape:export-filename="C:\Users\jlarroyor\Desktop\video_img_default.png"
   inkscape:export-xdpi="71"
   inkscape:export-ydpi="71"
   inkscape:version="0.92.1 r15371"><metadata
     id="metadata8"><rdf:RDF><cc:Work
         rdf:about=""><dc:format>image/svg+xml</dc:format><dc:type
           rdf:resource="http://purl.org/dc/dcmitype/StillImage" /><dc:title></dc:title></cc:Work></rdf:RDF></metadata><defs
     id="defs6"><clipPath
       clipPathUnits="userSpaceOnUse"
       id="clipPath20"><path
         d="M 0,1267 H 1900 V 0 H 0 Z"
         id="path18"
         inkscape:connector-curvature="0" /></clipPath></defs><sodipodi:namedview
     inkscape:current-layer="g10"
     inkscape:window-maximized="1"
     inkscape:window-y="-8"
     inkscape:window-x="-8"
     inkscape:cy="1352.3113"
     inkscape:cx="1377.2132"
     inkscape:zoom="0.16"
     showgrid="false"
     id="namedview4"
     inkscape:window-height="1017"
     inkscape:window-width="1920"
     inkscape:pageshadow="2"
     inkscape:pageopacity="0"
     guidetolerance="10"
     gridtolerance="10"
     objecttolerance="10"
     borderopacity="1"
     bordercolor="#666666"
     pagecolor="#ffffff" /><g
     id="g10"
     inkscape:groupmode="layer"
     inkscape:label="video_img_default"
     transform="matrix(1.3333333,0,0,-1.3333333,0,1689.3333)"><path
       d="M 0,0 H 1900 V 1267 H 0 Z"
       style="fill:#e7e7e7;fill-opacity:1;fill-rule:nonzero;stroke:none"
       id="path12"
       inkscape:connector-curvature="0" /><path
       style="fill:#9a9a9a;fill-opacity:1;stroke-width:0.60000002"
       d="M 335.60001,633.50003 V 1094.3 H 949.99999 1564.4 V 633.50003 172.70001 H 949.99999 335.60001 Z m 230.4,-307.2 v 76.8 h -76.8 -76.8 v -76.8 -76.80001 h 76.8 76.8 z m 691.19999,307.2 V 1017.5 H 949.99999 642.80001 V 633.50003 249.50002 H 949.99999 1257.2 Z m -460.79999,0 v 230.4008 L 949.69999,748.92555 C 1034.015,685.68907 1103,633.74763 1103,633.50003 c 0,-0.2476 -68.985,-52.18904 -153.30001,-115.42552 L 796.40001,403.09915 Z m 691.19999,-307.2 v 76.8 h -76.8 -76.8 v -76.8 -76.80001 h 76.8 76.8 z m -921.59999,307.2 v 76.8 h -76.8 -76.8 v -76.8 -76.8 h 76.8 76.8 z m 921.59999,0 v 76.8 h -76.8 -76.8 v -76.8 -76.8 h 76.8 76.8 z M 566.00001,940.7 v 76.8 h -76.8 -76.8 v -76.8 -76.79997 h 76.8 76.8 z m 921.59999,0 v 76.8 h -76.8 -76.8 v -76.8 -76.79997 h 76.8 76.8 z"
       id="path4289"
       inkscape:connector-curvature="0" /></g></svg>